<svg aria-hidden="true" style="position: absolute; width: 0; height: 0; overflow: hidden;" version="1.1" xmlns="http://www.w3.org/2000/svg" xmlns:xlink="http://www.w3.org/1999/xlink">
<defs>
<symbol id="icon-mobile-menu-burger" viewBox="0 0 32 32">
<path d="M0 7.5c0-0.398 0.158-0.779 0.439-1.061s0.663-0.439 1.061-0.439h29c0.398 0 0.779 0.158 1.061 0.439s0.439 0.663 0.439 1.061-0.158 0.779-0.439 1.061c-0.281 0.281-0.663 0.439-1.061 0.439h-29c-0.398 0-0.779-0.158-1.061-0.439s-0.439-0.663-0.439-1.061zM0 16c0-0.398 0.158-0.779 0.439-1.061s0.663-0.439 1.061-0.439h29c0.398 0 0.779 0.158 1.061 0.439s0.439 0.663 0.439 1.061-0.158 0.779-0.439 1.061c-0.281 0.281-0.663 0.439-1.061 0.439h-29c-0.398 0-0.779-0.158-1.061-0.439s-0.439-0.663-0.439-1.061zM1.5 23c-0.398 0-0.779 0.158-1.061 0.439s-0.439 0.663-0.439 1.061 0.158 0.779 0.439 1.061c0.281 0.281 0.663 0.439 1.061 0.439h29c0.398 0 0.779-0.158 1.061-0.439s0.439-0.663 0.439-1.061-0.158-0.779-0.439-1.061c-0.281-0.281-0.663-0.439-1.061-0.439h-29z"></path>
</symbol>
<symbol id="icon-close" viewBox="0 0 32 32">
<path d="M18.121 16l5.938-5.937c0.282-0.281 0.44-0.663 0.441-1.061s-0.157-0.78-0.439-1.062c-0.281-0.282-0.663-0.44-1.061-0.441s-0.78 0.157-1.062 0.439l-5.937 5.938-5.937-5.938c-0.282-0.282-0.664-0.44-1.063-0.44s-0.781 0.158-1.063 0.44c-0.282 0.282-0.44 0.664-0.44 1.063s0.158 0.781 0.44 1.063l5.938 5.937-5.938 5.937c-0.282 0.282-0.44 0.664-0.44 1.063s0.158 0.781 0.44 1.063c0.282 0.282 0.664 0.44 1.063 0.44s0.781-0.158 1.063-0.44l5.937-5.938 5.937 5.938c0.282 0.282 0.664 0.44 1.063 0.44s0.781-0.158 1.063-0.44c0.282-0.282 0.44-0.664 0.44-1.063s-0.158-0.781-0.44-1.063l-5.941-5.937z"></path>
</symbol>
<symbol id="icon-ant-design_user-outlined" viewBox="0 0 32 32">
<path fill="#2b9beb" style="fill: var(--color1, #2b9beb)" d="M26.828 23.863c-0.589-1.396-1.445-2.665-2.519-3.734-1.071-1.073-2.339-1.928-3.734-2.519-0.012-0.006-0.025-0.009-0.037-0.016 1.947-1.406 3.212-3.697 3.212-6.281 0-4.281-3.469-7.75-7.75-7.75s-7.75 3.469-7.75 7.75c0 2.584 1.266 4.875 3.213 6.284-0.012 0.006-0.025 0.009-0.037 0.016-1.4 0.591-2.656 1.437-3.734 2.519-1.073 1.071-1.928 2.339-2.519 3.734-0.58 1.366-0.893 2.831-0.922 4.316-0.001 0.033 0.005 0.067 0.017 0.098s0.030 0.059 0.054 0.083c0.023 0.024 0.051 0.043 0.082 0.056s0.064 0.020 0.097 0.020h1.875c0.138 0 0.247-0.109 0.25-0.244 0.063-2.412 1.031-4.672 2.744-6.384 1.772-1.772 4.125-2.747 6.631-2.747s4.86 0.975 6.631 2.747c1.712 1.712 2.681 3.972 2.744 6.384 0.003 0.137 0.112 0.244 0.25 0.244h1.875c0.033 0 0.066-0.007 0.097-0.020s0.059-0.032 0.082-0.056c0.023-0.024 0.042-0.052 0.054-0.083s0.018-0.064 0.017-0.098c-0.031-1.494-0.341-2.947-0.922-4.319zM16 16.688c-1.434 0-2.784-0.559-3.8-1.575s-1.575-2.366-1.575-3.8 0.559-2.784 1.575-3.8c1.016-1.016 2.366-1.575 3.8-1.575s2.784 0.559 3.8 1.575c1.016 1.016 1.575 2.366 1.575 3.8s-0.559 2.784-1.575 3.8c-1.016 1.016-2.366 1.575-3.8 1.575z"></path>
</symbol>
<symbol id="icon-bi_phone" viewBox="0 0 32 32">
<path d="M22 2c0.53 0 1.039 0.211 1.414 0.586s0.586 0.884 0.586 1.414v24c0 0.53-0.211 1.039-0.586 1.414s-0.884 0.586-1.414 0.586h-12c-0.53 0-1.039-0.211-1.414-0.586s-0.586-0.884-0.586-1.414v-24c0-0.53 0.211-1.039 0.586-1.414s0.884-0.586 1.414-0.586h12zM10 0c-1.061 0-2.078 0.421-2.828 1.172s-1.172 1.768-1.172 2.828v24c0 1.061 0.421 2.078 1.172 2.828s1.768 1.172 2.828 1.172h12c1.061 0 2.078-0.421 2.828-1.172s1.172-1.768 1.172-2.828v-24c0-1.061-0.421-2.078-1.172-2.828s-1.768-1.172-2.828-1.172h-12z"></path>
<path d="M16 28c0.53 0 1.039-0.211 1.414-0.586s0.586-0.884 0.586-1.414c0-0.53-0.211-1.039-0.586-1.414s-0.884-0.586-1.414-0.586c-0.53 0-1.039 0.211-1.414 0.586s-0.586 0.884-0.586 1.414c0 0.53 0.211 1.039 0.586 1.414s0.884 0.586 1.414 0.586z"></path>
</symbol>
<symbol id="icon-mingcute_pen-line" viewBox="0 0 32 32">
<path fill="#2b9beb" style="fill: var(--color1, #2b9beb)" d="M16.184 6.051c0.449-0.179 0.938-0.233 1.415-0.156s0.924 0.282 1.293 0.594l0.168 0.153 6.299 6.299c0.342 0.342 0.585 0.77 0.702 1.239s0.105 0.961-0.036 1.424l-0.076 0.213-3.153 7.884c-0.177 0.441-0.469 0.827-0.845 1.118s-0.823 0.476-1.295 0.535l-6.772 0.847c-0.174 0.020-0.356 0.045-0.547 0.075l-0.592 0.096-0.309 0.056-0.964 0.187-0.66 0.141-0.993 0.223-1.273 0.304-2.069 0.528-0.861 0.232c-0.217 0.060-0.446 0.064-0.666 0.012s-0.422-0.158-0.59-0.308c-0.168-0.151-0.295-0.341-0.37-0.553s-0.096-0.44-0.060-0.663l0.045-0.195 0.393-1.483 0.352-1.397 0.304-1.273 0.223-0.993 0.14-0.661 0.188-0.963 0.107-0.609 0.085-0.571 0.88-7.040c0.055-0.434 0.217-0.849 0.471-1.206s0.591-0.646 0.983-0.842l0.201-0.092 7.884-3.153zM17.173 8.527l-7.883 3.153-0.779 6.229-0.064 0.528c-0.131 0.981-0.302 1.956-0.513 2.923l-0.228 1.048 4.384-4.384c-0.152-0.567-0.113-1.168 0.112-1.711s0.622-0.995 1.13-1.289 1.099-0.411 1.681-0.335c0.582 0.077 1.123 0.343 1.538 0.758s0.682 0.956 0.758 1.538c0.077 0.582-0.041 1.173-0.335 1.681s-0.747 0.906-1.289 1.13c-0.542 0.225-1.144 0.264-1.711 0.112l-4.384 4.384 0.523-0.116 1.045-0.22c0.651-0.133 1.306-0.249 1.964-0.347l7.196-0.901 3.153-7.883-6.3-6.3zM20.324 4.135c0.229-0.23 0.535-0.368 0.859-0.389s0.644 0.078 0.901 0.277l0.125 0.112 5.656 5.656c0.242 0.239 0.383 0.562 0.394 0.902s-0.107 0.671-0.332 0.927c-0.225 0.255-0.539 0.415-0.878 0.446s-0.676-0.068-0.944-0.278l-0.125-0.112-5.656-5.656c-0.25-0.25-0.39-0.589-0.39-0.943s0.14-0.693 0.39-0.943z"></path>
</symbol>
<symbol id="icon-tdesign_system-log" viewBox="0 0 32 32">
<path d="M2.667 2.667h26.667v26.667h-26.667v-26.667zM5.333 13.333v13.333h21.333v-13.333h-21.333zM26.667 10.667v-5.333h-21.333v5.333h21.333zM6.667 6.667h2.672v2.672h-2.672v-2.672zM8 16h16v2.667h-16v-2.667zM8 21.333h8v2.667h-8v-2.667z"></path>
</symbol>
<symbol id="icon-gravity-ui_code" viewBox="0 0 32 32">
<path d="M20.436 6.432c0.1-0.377 0.050-0.778-0.14-1.118s-0.505-0.593-0.878-0.705c-0.373-0.112-0.776-0.074-1.122 0.105s-0.609 0.487-0.732 0.856l-6 20c-0.098 0.376-0.046 0.775 0.145 1.113s0.505 0.59 0.877 0.701c0.372 0.111 0.773 0.074 1.118-0.104s0.608-0.483 0.733-0.851l6-19.998zM9.060 9.94c0.281 0.281 0.439 0.662 0.439 1.060s-0.158 0.779-0.439 1.060l-3.94 3.94 3.94 3.94c0.265 0.284 0.409 0.66 0.402 1.049s-0.164 0.759-0.439 1.034-0.646 0.432-1.034 0.439c-0.389 0.007-0.765-0.137-1.049-0.402l-5-5c-0.281-0.281-0.439-0.663-0.439-1.060s0.158-0.779 0.439-1.060l5-5c0.281-0.281 0.662-0.439 1.060-0.439s0.779 0.158 1.060 0.439zM22.94 22.060c-0.281-0.281-0.439-0.663-0.439-1.060s0.158-0.779 0.439-1.060l3.94-3.94-3.94-3.94c-0.265-0.284-0.409-0.66-0.402-1.049s0.164-0.759 0.439-1.034c0.275-0.275 0.646-0.432 1.034-0.439s0.765 0.137 1.049 0.402l5 5c0.281 0.281 0.439 0.662 0.439 1.060s-0.158 0.779-0.439 1.060l-5 5c-0.281 0.281-0.663 0.439-1.060 0.439s-0.779-0.158-1.060-0.439z"></path>
</symbol>
<symbol id="icon-uil_brackets-curly" viewBox="0 0 32 32">
<path fill="#2b9beb" style="fill: var(--color1, #2b9beb)" d="M8 8c0-0.707 0.281-1.386 0.781-1.886s1.178-0.781 1.886-0.781c0.354 0 0.693-0.14 0.943-0.391s0.391-0.589 0.391-0.943c0-0.354-0.14-0.693-0.391-0.943s-0.589-0.39-0.943-0.39c-1.415 0-2.771 0.562-3.771 1.562s-1.562 2.357-1.562 3.771v4c0 0.707-0.281 1.386-0.781 1.886s-1.178 0.781-1.886 0.781c-0.354 0-0.693 0.14-0.943 0.39s-0.391 0.589-0.391 0.943c0 0.354 0.14 0.693 0.391 0.943s0.589 0.391 0.943 0.391c0.707 0 1.386 0.281 1.886 0.781s0.781 1.178 0.781 1.886v4c0 1.414 0.562 2.771 1.562 3.771s2.357 1.562 3.771 1.562c0.354 0 0.693-0.14 0.943-0.391s0.391-0.589 0.391-0.943c0-0.354-0.14-0.693-0.391-0.943s-0.589-0.391-0.943-0.391c-0.707 0-1.386-0.281-1.886-0.781s-0.781-1.178-0.781-1.886v-4c-0.004-0.759-0.171-1.509-0.488-2.199s-0.778-1.304-1.352-1.801c0.574-0.497 1.035-1.111 1.352-1.801s0.484-1.439 0.488-2.199v-4zM29.333 14.667c-0.707 0-1.386-0.281-1.886-0.781s-0.781-1.178-0.781-1.886v-4c0-1.415-0.562-2.771-1.562-3.771s-2.357-1.562-3.771-1.562c-0.354 0-0.693 0.14-0.943 0.39s-0.391 0.589-0.391 0.943c0 0.354 0.14 0.693 0.391 0.943s0.589 0.391 0.943 0.391c0.707 0 1.385 0.281 1.886 0.781s0.781 1.178 0.781 1.886v4c0.004 0.759 0.171 1.509 0.488 2.199s0.778 1.304 1.352 1.801c-0.574 0.497-1.035 1.111-1.352 1.801s-0.484 1.44-0.488 2.199v4c0 0.707-0.281 1.385-0.781 1.886s-1.178 0.781-1.886 0.781c-0.354 0-0.693 0.14-0.943 0.391s-0.391 0.589-0.391 0.943c0 0.354 0.14 0.693 0.391 0.943s0.589 0.391 0.943 0.391c1.414 0 2.771-0.562 3.771-1.562s1.562-2.357 1.562-3.771v-4c0-0.707 0.281-1.386 0.781-1.886s1.178-0.781 1.886-0.781c0.354 0 0.693-0.14 0.943-0.391s0.391-0.589 0.391-0.943c0-0.354-0.14-0.693-0.391-0.943s-0.589-0.39-0.943-0.39z"></path>
</symbol>
<symbol id="icon-material-symbols_database-outline" viewBox="0 0 32 32">
<path d="M16 28c-3.356 0-6.194-0.516-8.516-1.549s-3.483-2.294-3.484-3.784v-13.333c0-1.467 1.172-2.722 3.517-3.767s5.172-1.567 8.483-1.567c3.31 0 6.138 0.522 8.484 1.567s3.518 2.3 3.516 3.767v13.333c0 1.489-1.161 2.75-3.484 3.784s-5.161 1.55-8.516 1.549zM16 12.033c1.978 0 3.967-0.284 5.967-0.851s3.122-1.172 3.367-1.816c-0.244-0.644-1.361-1.256-3.349-1.833s-3.983-0.867-5.984-0.867c-2.022 0-4.005 0.284-5.949 0.851s-3.072 1.184-3.384 1.849c0.311 0.667 1.439 1.278 3.384 1.833s3.928 0.833 5.949 0.833zM16 18.667c0.933 0 1.833-0.044 2.7-0.133s1.695-0.217 2.484-0.384c0.789-0.167 1.534-0.372 2.233-0.616s1.338-0.521 1.916-0.833v-4c-0.578 0.311-1.216 0.589-1.916 0.833s-1.444 0.45-2.233 0.617-1.617 0.295-2.484 0.383c-0.867 0.088-1.767 0.132-2.7 0.133s-1.844-0.044-2.733-0.133-1.728-0.218-2.517-0.384c-0.789-0.166-1.528-0.372-2.216-0.616s-1.31-0.522-1.867-0.833v4c0.556 0.311 1.178 0.589 1.867 0.833s1.428 0.45 2.217 0.617c0.789 0.167 1.628 0.295 2.516 0.383s1.799 0.132 2.733 0.133zM16 25.333c1.022 0 2.061-0.078 3.117-0.233s2.028-0.361 2.916-0.616c0.888-0.255 1.632-0.544 2.233-0.867s0.956-0.651 1.067-0.984v-3.267c-0.578 0.311-1.216 0.589-1.916 0.833s-1.444 0.45-2.233 0.617c-0.789 0.167-1.617 0.295-2.484 0.383s-1.767 0.132-2.7 0.133c-0.933 0.001-1.844-0.044-2.733-0.133s-1.728-0.218-2.517-0.384c-0.789-0.166-1.528-0.372-2.216-0.616s-1.31-0.522-1.867-0.833v3.3c0.111 0.333 0.461 0.656 1.051 0.967s1.328 0.595 2.216 0.851 1.866 0.461 2.933 0.616c1.068 0.155 2.112 0.232 3.133 0.233z"></path>
</symbol>
</defs>
</svg>